<svg fill="#F25081" xmlns="http://www.w3.org/2000/svg"  viewBox="0 0 32 32" width="32px" height="32px"><path d="M 2.3457031 3.0175781 C 2.0817031 2.9705781 1.8098437 3.0256406 1.5898438 3.1816406 C 1.3698438 3.3346406 1.2217344 3.5719375 1.1777344 3.8359375 L 0.85351562 5.7851562 C -0.38848437 13.237156 -0.27740625 20.776359 1.1835938 28.193359 C 1.2765937 28.669359 1.6931094 29 2.1621094 29 C 2.2231094 29 2.2837031 28.994422 2.3457031 28.982422 C 9.2217031 27.712422 12.037359 24.861031 13.193359 22.707031 C 12.619359 22.593031 12.044563 22.457437 11.476562 22.273438 C 10.597563 21.989438 9.8871719 21.299688 9.5761719 20.429688 C 9.4551719 20.091687 9.3537656 19.751109 9.2597656 19.412109 C 8.1967656 20.009109 6.8482656 20.593609 5.1972656 20.974609 C 5.1222656 20.992609 5.0466562 21 4.9726562 21 C 4.5176562 21 4.1060469 20.687609 3.9980469 20.224609 C 3.8740469 19.686609 4.2100469 19.149391 4.7480469 19.025391 C 6.5080469 18.619391 7.8812344 17.946219 8.8652344 17.324219 C 8.7722344 16.443219 8.7712344 15.560688 8.8652344 14.679688 C 7.9392344 14.109687 6.5614219 13.427703 4.7324219 12.970703 C 4.1964219 12.836703 3.8699062 12.294766 4.0039062 11.759766 C 4.1379063 11.223766 4.6807969 10.89425 5.2167969 11.03125 C 6.9007969 11.45225 8.2358594 12.037656 9.2558594 12.597656 C 9.3498594 12.254656 9.4531719 11.911312 9.5761719 11.570312 C 9.8871719 10.700313 10.598469 10.012562 11.480469 9.7265625 C 12.047469 9.5435625 12.619359 9.4069687 13.193359 9.2929688 C 12.037359 7.1379687 9.2217031 4.2865781 2.3457031 3.0175781 z M 29.654297 3.0175781 C 22.778297 4.2875781 19.962641 7.1389688 18.806641 9.2929688 C 19.380641 9.4069688 19.954437 9.5425625 20.523438 9.7265625 C 21.401438 10.011563 22.112828 10.700312 22.423828 11.570312 C 22.544828 11.907312 22.647234 12.246938 22.740234 12.585938 C 23.757234 12.029937 25.085812 11.44925 26.757812 11.03125 C 27.288812 10.89425 27.836703 11.222766 27.970703 11.759766 C 28.105703 12.294766 27.779188 12.836703 27.242188 12.970703 C 25.430187 13.423703 24.058813 14.098063 23.132812 14.664062 C 23.227812 15.555063 23.227812 16.447844 23.132812 17.339844 C 24.113813 17.957844 25.477609 18.624344 27.224609 19.027344 C 27.762609 19.151344 28.098609 19.688563 27.974609 20.226562 C 27.866609 20.688562 27.456953 21 27.001953 21 C 26.927953 21 26.851391 20.991609 26.775391 20.974609 C 25.137391 20.596609 23.797328 20.019734 22.736328 19.427734 C 22.643328 19.762734 22.541875 20.095688 22.421875 20.429688 C 22.110875 21.298687 21.401531 21.989391 20.519531 22.275391 C 19.952531 22.458391 19.380641 22.594984 18.806641 22.708984 C 19.962641 24.862984 22.776344 27.714375 29.652344 28.984375 C 29.715344 28.995375 29.776891 29 29.837891 29 C 30.306891 29 30.723406 28.669359 30.816406 28.193359 C 32.277406 20.776359 32.389484 13.237156 31.146484 5.7851562 L 30.822266 3.8359375 C 30.778266 3.5709375 30.630156 3.3346406 30.410156 3.1816406 C 30.191156 3.0276406 29.920297 2.9715781 29.654297 3.0175781 z M 16 11.001953 C 14.694875 11.001953 13.38975 11.210906 12.09375 11.628906 C 11.79875 11.723906 11.564937 11.952141 11.460938 12.244141 C 10.568937 14.736141 10.568938 17.263859 11.460938 19.755859 C 11.565938 20.047859 11.79875 20.275094 12.09375 20.371094 C 13.38975 20.789094 14.695 20.998047 16 20.998047 C 17.305 20.998047 18.61025 20.789094 19.90625 20.371094 C 20.20125 20.276094 20.435063 20.047859 20.539062 19.755859 C 21.431063 17.263859 21.431062 14.736141 20.539062 12.244141 C 20.434063 11.952141 20.20125 11.724906 19.90625 11.628906 C 18.61075 11.210906 17.305125 11.001953 16 11.001953 z"/></svg>